HIERARCHY
ROOT Hips
{
	OFFSET 0.000000 0.000000 0.000000
	CHANNELS 6 Xposition Yposition Zposition Xrotation Yrotation Zrotation
	JOINT LeftUpLeg_virtual
	{
		OFFSET 0.000000 0.000000 0.000000
		CHANNELS 3 Xrotation Yrotation Zrotation
		JOINT LeftUpLeg
		{
			OFFSET 11.394100 -6.187798 -0.413800
			CHANNELS 3 Xrotation Yrotation Zrotation
			JOINT LeftLeg
			{
				OFFSET 0.430247 -32.302673 3.732800
				CHANNELS 3 Xrotation Yrotation Zrotation
				JOINT LeftFoot
				{
					OFFSET -0.430247 -48.264931 -6.423300
					CHANNELS 3 Xrotation Yrotation Zrotation
					JOINT LeftToeBase
					{
						OFFSET 4.230900 -16.068199 23.438400
						CHANNELS 3 Xrotation Yrotation Zrotation
						JOINT LeftToe_End
						{
							OFFSET 4.510700 0.695400 19.974600
							CHANNELS 3 Xrotation Yrotation Zrotation
							End Site
							{
								OFFSET 0 0 0
							}
						}
					}
				}
			}
		}
	}
	JOINT RightUpLeg_virtual
	{
		OFFSET 0.000000 0.000000 0.000000
		CHANNELS 3 Xrotation Yrotation Zrotation
		JOINT RightUpLeg
		{
			OFFSET -11.333700 -6.187798 -0.413800
			CHANNELS 3 Xrotation Yrotation Zrotation
			JOINT RightLeg
			{
				OFFSET -0.430392 -32.302628 3.733000
				CHANNELS 3 Xrotation Yrotation Zrotation
				JOINT RightFoot
				{
					OFFSET 0.430392 -48.264973 -6.423500
					CHANNELS 3 Xrotation Yrotation Zrotation
					JOINT RightToeBase
					{
						OFFSET -4.230900 -16.068199 23.438400
						CHANNELS 3 Xrotation Yrotation Zrotation
						JOINT RightToe_End
						{
							OFFSET -4.510700 0.695400 19.974600
							CHANNELS 3 Xrotation Yrotation Zrotation
							End Site
							{
								OFFSET 0 0 0
							}
						}
					}
				}
			}
		}
	}
	JOINT Spine_virtual
	{
		OFFSET 0.000000 0.000000 0.000000
		CHANNELS 3 Xrotation Yrotation Zrotation
		JOINT Spine
		{
			OFFSET -0.002400 12.777504 0.315300
			CHANNELS 3 Xrotation Yrotation Zrotation
			JOINT Spine1
			{
				OFFSET -0.002067 5.816869 0.032633
				CHANNELS 3 Xrotation Yrotation Zrotation
				JOINT Spine1_split
				{
					OFFSET -0.002067 5.816869 0.032633
					CHANNELS 3 Xrotation Yrotation Zrotation
					JOINT Spine2
					{
						OFFSET -0.002067 5.816869 0.032633
						CHANNELS 3 Xrotation Yrotation Zrotation
						JOINT Neck_virtual
						{
							OFFSET 0.000000 0.000000 0.000000
							CHANNELS 3 Xrotation Yrotation Zrotation
							JOINT Neck
							{
								OFFSET -0.003700 21.199493 -0.826900
								CHANNELS 3 Xrotation Yrotation Zrotation
								JOINT Head
								{
									OFFSET 0.000000 20.442200 4.834800
									CHANNELS 3 Xrotation Yrotation Zrotation
									JOINT HeadTop_End
									{
										OFFSET 0.000000 34.668396 4.968400
										CHANNELS 3 Xrotation Yrotation Zrotation
										End Site
										{
											OFFSET 0 0 0
										}
									}
								}
							}
						}
						JOINT LeftShoulder_virtual
						{
							OFFSET 0.000000 0.000000 0.000000
							CHANNELS 3 Xrotation Yrotation Zrotation
							JOINT LeftShoulder
							{
								OFFSET 3.288150 8.794197 -1.372250
								CHANNELS 3 Xrotation Yrotation Zrotation
								JOINT LeftShoulder_split
								{
									OFFSET 3.288150 8.794197 -1.372250
									CHANNELS 3 Xrotation Yrotation Zrotation
									JOINT LeftArm
									{
										OFFSET 11.953299 -2.279007 -0.146200
										CHANNELS 3 Xrotation Yrotation Zrotation
										JOINT LeftForeArm
										{
											OFFSET 18.448900 0.000000 0.000000
											CHANNELS 3 Xrotation Yrotation Zrotation
											JOINT LeftHand
											{
												OFFSET 29.527798 0.000000 0.000000
												CHANNELS 3 Xrotation Yrotation Zrotation
												End Site
												{
													OFFSET 0 0 0
												}
											}
										}
									}
								}
							}
						}
						JOINT RightShoulder_virtual
						{
							OFFSET 0.000000 0.000000 0.000000
							CHANNELS 3 Xrotation Yrotation Zrotation
							JOINT RightShoulder
							{
								OFFSET -3.249400 8.794197 -1.372250
								CHANNELS 3 Xrotation Yrotation Zrotation
								JOINT RightShoulder_split
								{
									OFFSET -3.249400 8.794197 -1.372250
									CHANNELS 3 Xrotation Yrotation Zrotation
									JOINT RightArm
									{
										OFFSET -11.953299 -2.279007 -0.146200
										CHANNELS 3 Xrotation Yrotation Zrotation
										JOINT RightForeArm
										{
											OFFSET -18.448900 0.000000 0.000000
											CHANNELS 3 Xrotation Yrotation Zrotation
											JOINT RightHand
											{
												OFFSET -29.527802 0.000000 0.000000
												CHANNELS 3 Xrotation Yrotation Zrotation
												End Site
												{
													OFFSET 0 0 0
												}
											}
										}
									}
								}
							}
						}
					}
				}
			}
		}
	}
}
MOTION
Frames: 4
Frame Time: 0.03333333
6.403512 92.252113 -1.406158 0.000000 0.000000 0.000000 170.222234 -75.890191 -179.676869 -14.035015 17.930039 12.576902 41.967739 15.459522 -5.938266 -16.630343 16.146340 -18.953760 -0.194789 -0.307463 -0.639250 0.000000 0.000000 0.000000 165.972668 -77.629280 176.833283 -43.509090 13.376382 -13.375895 38.269939 -1.981199 -9.782258 -9.642620 18.714281 14.955319 1.586548 2.451728 2.071060 0.000000 0.000000 0.000000 168.486478 -78.165600 179.054748 25.862662 -11.688793 7.635620 22.676727 -2.586627 0.783084 0.675557 -1.094702 1.433225 0.000000 0.000000 0.000000 21.998337 -2.834666 0.698214 12.248808 -3.030589 -5.636655 -26.488544 17.523882 -9.008019 0.000000 0.000000 0.000000 23.848832 -3.131655 1.062427 -0.736038 -10.710830 10.274084 -2.762453 -2.468164 1.248362 16.314040 18.118532 -75.777390 11.112848 -81.575545 9.373201 0.000000 0.000000 0.000000 22.462467 -2.790830 1.410935 6.972525 16.475666 13.175683 6.255985 4.029147 5.006328 -61.222824 52.714888 51.610036 178.136770 66.419512 -176.973480 0.000000 0.000000 0.000000 
6.356488 91.778748 -1.967850 0.000000 0.000000 0.000000 175.979182 -78.668309 -173.122264 -14.219177 18.741390 13.556268 42.991642 13.478554 -5.499701 -18.221193 13.494410 -19.004971 -1.552555 -0.262730 -0.338878 0.000000 0.000000 0.000000 171.993384 -81.355121 -176.507306 -43.335604 11.285579 -15.263108 41.835028 -2.706133 -9.585270 -9.884111 16.131992 13.960251 2.361123 2.574251 1.773762 0.000000 0.000000 0.000000 175.265823 -80.555374 -173.886084 24.745692 -12.440073 7.196234 22.461036 -2.860200 1.028106 1.429923 -0.662046 1.473988 0.000000 0.000000 0.000000 21.736082 -3.154338 0.889597 11.325897 -2.806384 -7.303993 -22.993379 19.263471 -10.641389 0.000000 0.000000 0.000000 23.551730 -3.370175 1.347025 -0.686275 -9.549399 9.390392 -2.676689 -2.892879 1.122704 8.343491 26.740448 -71.023162 -1.438329 -86.135270 -2.213735 0.000000 0.000000 0.000000 22.151666 -3.076055 1.576321 7.295385 17.751785 13.379152 5.149429 3.903881 4.904163 -55.841721 46.953972 45.587712 177.781764 65.888888 -176.754395 0.000000 0.000000 0.000000 
6.226120 91.346664 -2.737473 0.000000 0.000000 0.000000 -171.135649 -82.488085 -159.625223 -14.827897 18.874055 14.829896 43.638724 11.056962 -4.543306 -19.011184 10.097822 -19.677819 -2.107663 -0.180367 -0.185246 0.000000 0.000000 0.000000 -168.367141 -85.820125 -156.431385 -42.869327 9.099747 -17.231850 45.572306 -3.636915 -9.201561 -9.654238 13.203195 13.285190 2.806525 2.635207 1.247289 0.000000 0.000000 0.000000 -172.289896 -83.802992 -161.527089 23.259193 -12.543403 6.988953 21.889238 -3.080170 1.301726 1.721386 0.029554 1.199304 0.000000 0.000000 0.000000 21.462240 -3.450063 1.114038 9.695273 -2.582363 -7.606389 -19.433521 20.618033 -12.131280 0.000000 0.000000 0.000000 23.043195 -3.536163 1.617573 -0.603047 -8.622674 8.877023 -1.962609 -2.445439 0.628912 1.005122 29.827945 -67.070067 -156.768401 -86.729237 -156.625745 0.000000 0.000000 0.000000 21.754468 -3.336463 1.696269 7.608605 19.047162 13.304207 3.750713 3.765321 4.340838 -53.619321 42.165985 43.097240 178.273729 66.063721 -177.425925 0.000000 0.000000 0.000000 
6.085003 90.992790 -3.367085 0.000000 0.000000 0.000000 -128.363242 -86.031628 -116.594157 -15.797391 18.262918 16.056865 43.848452 8.802929 -3.246275 -19.239139 6.468949 -20.445761 -1.810383 -0.055785 -0.286432 0.000000 0.000000 0.000000 -70.410842 -86.941553 -58.247669 -41.779318 7.220977 -18.829561 48.895624 -4.657084 -8.814985 -9.348593 10.119796 13.016567 2.774371 2.606320 0.778352 0.000000 0.000000 0.000000 -133.849428 -86.769535 -123.435657 21.575818 -11.963292 6.823970 20.985888 -3.154103 1.380199 1.260035 0.527290 0.606454 0.000000 0.000000 0.000000 21.093058 -3.648599 1.107202 7.821554 -2.352498 -6.589776 -15.872192 21.544572 -13.043541 0.000000 0.000000 0.000000 22.324123 -3.621463 1.610278 -0.504854 -8.087882 8.529321 -1.377418 -1.861069 -0.174262 -2.861007 27.469457 -65.676572 -171.830880 -78.674115 -171.087073 0.000000 0.000000 0.000000 21.289809 -3.503664 1.595109 7.790130 20.113019 12.967159 2.266555 4.026069 3.874995 -53.151569 38.115925 42.820720 179.337996 67.037077 -178.788357 0.000000 0.000000 0.000000 
